<?xml version="1.0" standalone="no"?>
<!DOCTYPE svg PUBLIC "-//W3C//DTD SVG 20010904//EN"
 "http://www.w3.org/TR/2001/REC-SVG-20010904/DTD/svg10.dtd">
<svg version="1.0" xmlns="http://www.w3.org/2000/svg"
 width="642.000000pt" height="642.000000pt" viewBox="0 0 642.000000 642.000000"
 preserveAspectRatio="xMidYMid meet">
<metadata>
Created by potrace 1.11, written by Peter Selinger 2001-2013
</metadata>
<g transform="translate(0.000000,642.000000) scale(0.100000,-0.100000)"
fill="#000000" stroke="none">
<path d="M260 6378 c-85 -15 -163 -78 -201 -163 l-23 -50 0 -2950 0 -2950 23
-52 c26 -58 90 -123 148 -150 36 -16 209 -17 2998 -17 2794 0 2962 1 2998 17
58 27 122 92 148 150 l23 52 0 2950 0 2950 -21 46 c-30 66 -85 123 -146 150
l-52 23 -2926 0 c-1610 1 -2946 -2 -2969 -6z"/>
</g>
</svg>
